<?xml version="1.0" encoding="utf-8"?>
<svg xmlns="http://www.w3.org/2000/svg" xmlns:xlink="http://www.w3.org/1999/xlink" version="1.1" id="Layer_1" x="0px" y="0px" viewBox="0 0 450 100" style="enable-background:new 0 0 450 100;" xml:space="preserve" width="117" height="26">
<g>
	<path d="M98.2,0c1.8,0,2.8,0.8,2.8,2.7v12.2c0,1.9-1,3.1-2.8,3.1H35.6c-3.2,0-5.9,0.2-8.1,0.7c-2.1,0.5-3.8,1.4-5.1,2.7   c-1.2,1.3-2.1,3-2.7,5.2c-0.5,2.2-0.8,4.9-0.8,8.2v18c0,3.3,0.3,6.1,0.8,8.3c0.5,2.2,1.4,4,2.7,5.2c1.2,1.3,2.9,2.3,5.1,2.8   c2.1,0.5,4.8,0.9,8.1,0.9h41.2c2.2,0,3.7-0.6,4.7-1.7c1-1.1,1.5-3.2,1.5-6V52.1c0-1.1-0.4-1.1-1.4-1.1H45c-1.8,0-3-1.4-3-3.3v-9.4   c0-1.9,1.1-3.3,3-3.3h52.1c2.5,0,3.9,1.7,3.9,4.2v29.1c0,7-1.4,11.7-4.1,14.6c-2.7,2.9-6.6,4.1-11.6,4.1H34.8   c-6.3,0-11.7-0.4-16.1-1.6c-4.4-1.2-8-3-10.8-5.6c-2.8-2.6-4.8-6-6.1-10.2C0.6,65.4,0,60.4,0,54.4V32.9c0-6,0.6-11.1,1.9-15.2   C3.2,13.5,5.2,10.1,8,7.5c2.8-2.6,6.4-4.5,10.8-5.7C23.2,0.6,28.5,0,34.8,0H98.2z"/>
	<path d="M169.5,0c3.2,0,5.8,0.6,8,1.9c2.2,1.3,4.3,3.8,6.4,7.5l41.3,75.1c0.4,0.8,0.5,1.3,0.3,1.9c-0.2,0.5-0.8,0.6-1.8,0.6h-15.9   c-1.4,0-2.4-0.2-2.9-1.3L196.1,70h-58.7l-8.6,15.7c-0.6,1.1-1.5,1.3-2.9,1.3h-16.2c-1.1,0-1.7-0.1-1.9-0.6c-0.2-0.5-0.1-1.1,0.3-2   l41-75c2.1-3.7,4.1-6.2,6.1-7.5c2-1.3,4.3-1.9,7-1.9H169.5z M145.3,55h43l-19.9-36.4c-0.3-0.6-0.8-0.6-1.4-0.6h-0.7   c-0.6,0-1,0.1-1.4,0.6L145.3,55z"/>
	<path d="M322.7,0c1.8,0,2.3,0.8,2.3,2.7v11.9c0,1.8-0.5,2.5-2.3,2.5h-62.6c-2.4,0-4.3,0.8-5.3,2c-1,1.2-1.7,3.1-1.7,5.3v4.2   c0,4.7,2.6,7.5,6.9,7.5h46.8c7.2,0,12.9,1.6,16.5,5.3C327,45,329,50.1,329,57v10c0,6.1-2,10.8-5.5,14.6c-3.6,3.7-9.3,5.4-16.9,5.4   h-69.2c-1.9,0-3.3-0.5-3.3-2.4V72.8c0-1.8,1.4-2.8,3.3-2.8h65.6c2.4,0,4.4-0.6,5.4-1.9c1-1.2,1.7-2.9,1.7-5.1v-5.1   c0-4.7-2.6-6.9-7-6.9h-46.8c-7.2,0-12.9-1.9-16.5-5.6c-3.7-3.7-5.7-9.1-5.7-16v-9.1c0-6.1,2-11,5.5-14.7c3.6-3.7,9.3-5.6,16.9-5.6   H322.7z"/>
	<path d="M448.4,17.7c-1.3-4.2-3.2-7.6-5.9-10.2c-2.8-2.6-6.4-4.5-10.8-5.7c-4.5-1.2-9.8-1.8-16.1-1.8h-38.6   c-6.3,0-11.7,0.6-16.1,1.8c-4.4,1.2-8,3.1-10.8,5.7c-2.8,2.6-4.8,6-6.1,10.2c-1.3,4.2-1.9,9.2-1.9,15.2v21.5c0,6,0.6,11.1,1.9,15.3   c1.3,4.2,3.3,7.6,6.1,10.2c2.8,2.6,6.4,4.3,10.8,5.5c4.4,1.2,9.8,1.6,16.1,1.6h31l8.5,10.6c0.5,0.6,1,1.3,1.6,1.6   c0.6,0.3,1.4,0.8,2.4,0.8h17.1c1.2,0,1.8-0.6,1.9-1.4c0.1-0.8-0.1-1.6-0.6-2.2L430.3,86c0.4-0.1,0.9-0.2,1.3-0.3   c4.5-1.2,8.1-3.1,10.9-5.7c2.8-2.6,4.6-6,5.8-10.3c1.2-4.2,1.6-9.3,1.6-15.3V32.9C450,26.9,449.6,21.8,448.4,17.7z M431,53   c0,3.2-0.1,6-0.6,8.2c-0.5,2.2-1.4,4-2.6,5.2c-1.2,1.3-2.9,2.2-5,2.7c-1.5,0.4-3.3,0.6-5.4,0.7l-10.2-12.6c-0.5-0.7-1-0.9-1.6-1.2   c-0.6-0.3-1.4-0.2-2.4-0.2H386c-1.2,0-1.8,0.2-1.9,1c-0.1,0.8,0.1,1.4,0.7,1.9l9.1,11.1h-16.2c-3.2,0-5.9-0.3-8.1-0.8   c-2.1-0.5-3.8-1.5-5.1-2.7s-2.2-3-2.7-5.2c-0.5-2.2-0.8-4.9-0.8-8.2V34.3c0-3.2,0.3-6,0.8-8.2c0.5-2.2,1.4-4,2.7-5.2   c1.2-1.3,2.9-2.4,5.1-2.9c2.1-0.5,4.8-1,8.1-1h37.1c3.2,0,5.9,0.4,8.1,1c2.1,0.5,3.8,1.5,5.1,2.8c1.2,1.3,2,3.1,2.5,5.3   c0.5,2.2,0.6,5,0.6,8.2V53z"/>
</g>
</svg>
